<svg width="19" height="19" viewBox="0 0 19 19" fill="none" xmlns="http://www.w3.org/2000/svg">
<path fill-rule="evenodd" clip-rule="evenodd" d="M18.4149 9.42725C18.4149 14.3978 14.3855 18.4272 9.41486 18.4272C4.44426 18.4272 0.414856 14.3978 0.414856 9.42725C0.414856 4.45665 4.44426 0.427246 9.41486 0.427246C14.3855 0.427246 18.4149 4.45665 18.4149 9.42725ZM3.51486 6.55565C3.60626 10.9572 5.80706 13.6016 9.66526 13.6016H9.88366V11.0842C11.3024 11.2315 12.374 12.2625 12.804 13.6016H14.8068C14.6002 12.8424 14.2351 12.1356 13.7356 11.5278C13.236 10.9199 12.6133 10.4249 11.9085 10.0752C12.8108 9.55215 14.0805 8.28245 14.3835 6.56245H12.5636C12.1692 7.95915 10.9977 9.22885 9.88366 9.34905V6.56245H8.06376V11.4363C6.93456 11.1536 5.51086 9.78575 5.44646 6.55565H3.51486Z" fill="#ABB0C3"/>
</svg>
