<svg width="41" height="15" viewBox="0 0 41 15" fill="none" xmlns="http://www.w3.org/2000/svg">
<path fill-rule="evenodd" clip-rule="evenodd" d="M6.21866 3.97214C7.55483 3.35452 9.11369 3.63532 10.5453 3.57907C10.5771 6.27445 10.5771 8.99797 10.5453 11.6934C10.0681 11.6934 9.55909 11.6934 9.08188 11.6934C9.08188 9.3349 9.08188 7.00447 9.08188 4.64602C8.00022 4.53374 6.31411 4.78642 6.37773 6.02178C6.15503 7.28527 7.52302 8.01528 8.54106 8.63302C7.84116 9.67184 7.07762 10.6825 6.34591 11.6934C5.77327 11.6934 5.20062 11.6934 4.62798 11.6934C5.26426 10.7668 5.96416 9.86838 6.63224 8.96984C5.96416 8.46449 5.23244 7.98715 4.97793 7.201C4.46892 6.0499 4.94612 4.56187 6.21866 3.97214ZM6.05959 1.08033C2.71916 1.78222 0.205887 4.73028 0.428582 7.7626C0.301328 11.1037 3.51451 14.1641 7.26852 14.3606C9.87723 14.6134 12.5814 13.4903 14.0766 11.5811C15.6674 9.6157 15.8582 6.92032 14.7765 4.73028C13.3767 1.86648 9.46364 0.237963 6.05959 1.08033Z" fill="#E8522F"/>
<path d="M21.2597 4.46648V7.48294H22.1431C22.6887 7.48294 23.1174 7.35818 23.4292 7.10877C23.741 6.85936 23.8969 6.45796 23.8969 5.90457C23.8969 5.38234 23.7496 5.01211 23.4551 4.79386C23.1694 4.57561 22.7494 4.46648 22.1951 4.46648H21.2597ZM21.2597 8.64035V11.4346H19.2332V3.30908H22.1431C23.3382 3.30908 24.2649 3.51563 24.9231 3.92873C25.5812 4.34183 25.9104 4.98871 25.9104 5.86947C25.9104 6.35277 25.8195 6.76969 25.6376 7.12047C25.4644 7.46348 25.2132 7.74788 24.8841 7.97401C24.555 8.20002 24.1566 8.36753 23.689 8.47666C23.2214 8.58578 22.7017 8.64035 22.1301 8.64035H21.2597Z" fill="black"/>
<path d="M29.411 10.511C29.7227 10.511 29.9696 10.4448 30.1514 10.3123C30.342 10.1721 30.4891 10.0005 30.5931 9.79789V8.72228H30.0735C29.4846 8.72228 29.0732 8.80406 28.8394 8.96775C28.6142 9.13144 28.5016 9.36915 28.5016 9.681C28.5016 9.96157 28.5839 10.1721 28.7485 10.3123C28.913 10.4448 29.1339 10.511 29.411 10.511ZM30.8529 11.4346C30.8096 11.3334 30.7706 11.2164 30.736 11.084C30.71 10.9437 30.6884 10.7955 30.671 10.6397C30.5931 10.7488 30.4979 10.8579 30.3852 10.967C30.2726 11.0761 30.1427 11.1735 29.9955 11.2594C29.8484 11.3451 29.6751 11.4152 29.4759 11.4697C29.2767 11.5243 29.0515 11.5516 28.8004 11.5516C28.4886 11.5516 28.1985 11.5166 27.93 11.4464C27.6616 11.3763 27.4321 11.271 27.2415 11.1307C27.051 10.9826 26.8995 10.7995 26.7869 10.5812C26.683 10.363 26.631 10.1096 26.631 9.82129C26.631 9.2445 26.9081 8.78066 27.4624 8.43C28.0166 8.07146 28.874 7.89214 30.0345 7.89214H30.5931V7.56476C30.5931 7.2141 30.4979 6.95299 30.3074 6.78142C30.1167 6.60221 29.7617 6.51255 29.2421 6.51255C28.861 6.51255 28.5319 6.57105 28.2547 6.68794C27.9776 6.79706 27.7049 6.93735 27.4364 7.1088L26.8907 5.928C27.1679 5.77984 27.5144 5.65519 27.93 5.55382C28.3544 5.4447 28.8826 5.39014 29.5149 5.39014C30.4675 5.39014 31.1994 5.55776 31.7102 5.8929C32.2299 6.22027 32.4897 6.75802 32.4897 7.50637V10.4877C32.4897 10.6201 32.4941 10.7878 32.5027 10.9904C32.52 11.1852 32.5417 11.3334 32.5676 11.4346H30.8529Z" fill="black"/>
<path d="M35.089 13.6329C34.7252 13.6329 34.4395 13.6134 34.2316 13.5745C34.0324 13.5354 33.8679 13.4848 33.738 13.4225L33.9587 12.2182C34.0194 12.2494 34.1364 12.2923 34.3095 12.3469C34.4827 12.4092 34.7079 12.4404 34.985 12.4404C35.4354 12.4404 35.7817 12.226 36.0242 11.7973L33.4002 5.50732H35.3357L37.0895 9.95006L38.8432 5.50732H40.4151L38.0249 11.2245C37.8516 11.6453 37.6697 12.0078 37.4792 12.3118C37.2887 12.6158 37.0765 12.8652 36.8427 13.06C36.6089 13.2549 36.3491 13.3991 36.0632 13.4926C35.7775 13.5862 35.4527 13.6329 35.089 13.6329Z" fill="black"/>
</svg>
