<svg width="18" height="18" viewBox="0 0 18 18" fill="none" xmlns="http://www.w3.org/2000/svg">
<path fill-rule="evenodd" clip-rule="evenodd" d="M12.4776 7.61135C12.9733 7.49453 13.4822 7.74592 13.6907 8.2106C14.5377 10.0983 14.2946 12.3238 13.2853 13.9536C12.2458 15.6322 10.3293 16.7515 7.94498 16.1509C5.9716 15.6539 4.67928 14.5356 4.04188 13.1441C3.41966 11.7857 3.47044 10.2729 3.96081 9.03664C4.53281 7.59451 5.66932 6.64246 6.56341 5.89351C6.62578 5.84128 6.68693 5.79003 6.74664 5.73967C7.74109 4.90119 8.3992 4.26799 8.62992 3.35196C8.71922 2.99748 8.98448 2.71379 9.33213 2.6009C9.67983 2.48801 10.0611 2.56178 10.3416 2.7962C11.7707 3.99059 11.9506 5.86614 12.0403 7.06188C12.0512 7.20686 12.0605 7.34153 12.0693 7.46707C12.0773 7.58176 12.0847 7.68881 12.0923 7.78906C12.2047 7.70645 12.3348 7.64504 12.4776 7.61135Z" fill="white"/>
<path d="M12.7213 8.64564C14.1076 11.7354 11.9359 16.0605 8.20448 15.1207C4.81219 14.2663 4.15781 11.4218 4.94846 9.42849C5.93679 6.93687 9.01119 6.18866 9.66027 3.61157C11.7464 5.35502 10.3974 9.27836 11.7543 9.62016C12.5685 9.82517 12.7382 9.05592 12.7213 8.64564Z" fill="#E95B21"/>
<path d="M11.4899 10.6602C12.622 12.849 11.029 15.8321 8.12671 15.1011C5.48829 14.4365 4.92655 12.4337 5.49832 11.0547C6.21304 9.3311 8.57423 8.86822 9.02511 7.07812C10.6716 8.33894 9.70643 11.0571 10.7618 11.3229C11.395 11.4823 11.511 10.9475 11.4899 10.6602Z" fill="#FF7E27"/>
<path d="M10.0369 12.1298C10.6524 13.5276 9.67415 15.4907 8.00597 15.0705C6.48941 14.6886 6.20094 13.4007 6.55773 12.4963C7.00377 11.3659 8.3805 11.0222 8.67487 9.85352C9.60562 10.6403 8.99612 12.42 9.60275 12.5728C9.96671 12.6645 10.0438 12.3156 10.0369 12.1298Z" fill="#FFDA79"/>
</svg>
