<svg width="11" height="10" viewBox="0 0 11 10" fill="none" xmlns="http://www.w3.org/2000/svg">
<path d="M5.41959 0.769556C5.53934 0.401036 6.06069 0.401031 6.18044 0.769556L7.05729 3.46824C7.11084 3.63304 7.26444 3.74464 7.43774 3.74464H10.2753C10.6628 3.74464 10.8239 4.24049 10.5104 4.46824L8.21474 6.13614C8.07454 6.23799 8.01589 6.41854 8.06944 6.58334L8.94629 9.28204C9.06604 9.65054 8.64424 9.95699 8.33079 9.72924L6.03514 8.06134C5.89494 7.95949 5.70509 7.95949 5.56489 8.06134L3.26924 9.72924C2.95579 9.95699 2.53398 9.65054 2.65372 9.28204L3.53059 6.58334C3.58414 6.41854 3.52549 6.23799 3.38529 6.13614L1.08963 4.46824C0.776148 4.24049 0.937258 3.74464 1.32475 3.74464H4.16229C4.33559 3.74464 4.48919 3.63304 4.54274 3.46824L5.41959 0.769556Z" fill="white"/>
</svg>
