<svg width="33" height="33" viewBox="0 0 33 33" fill="none" xmlns="http://www.w3.org/2000/svg">
<path d="M14.2872 21.6444H11.6761L13.308 11.6152H15.9194L14.2872 21.6444ZM9.47938 11.6152L6.99004 18.5134L6.69548 17.0279L5.81714 12.5182C5.81714 12.5182 5.7109 11.6152 4.57851 11.6152H0.463146L0.414856 11.785C0.414856 11.785 1.67334 12.0468 3.14618 12.9314L5.41473 21.6447H8.13532L12.2896 11.6152H9.47938ZM30.0173 21.6444H32.4149L30.3245 11.6149H28.2255C27.2562 11.6149 27.0201 12.3623 27.0201 12.3623L23.1258 21.6444H25.8478L26.3921 20.1547H29.7115L30.0173 21.6444ZM27.1441 18.0967L28.516 14.3436L29.2879 18.0967H27.1441ZM23.33 14.027L23.7026 11.8733C23.7026 11.8733 22.5528 11.436 21.3541 11.436C20.0584 11.436 16.9812 12.0023 16.9812 14.7562C16.9812 17.3472 20.5928 17.3794 20.5928 18.7403C20.5928 20.1013 17.3533 19.8574 16.2842 18.9992L15.8961 21.2511C15.8961 21.2511 17.062 21.8175 18.8433 21.8175C20.6252 21.8175 23.3134 20.8949 23.3134 18.3838C23.3134 15.7762 19.6694 15.5334 19.6694 14.3996C19.6696 13.2656 22.2126 13.4113 23.33 14.027Z" fill="#2566AF"/>
<path d="M6.69575 17.028L5.81715 12.5177C5.81715 12.5177 5.71091 11.6147 4.57851 11.6147H0.463146L0.414856 11.7845C0.414856 11.7845 2.39286 12.1944 4.29011 13.7303C6.1042 15.1983 6.69575 17.028 6.69575 17.028Z" fill="#E6A540"/>
</svg>
