<svg width="25" height="25" viewBox="0 0 25 25" fill="none" xmlns="http://www.w3.org/2000/svg">
<path d="M12.1868 13.7743C12.5633 13.7743 12.77 13.5676 12.8495 13.2123C12.9185 12.7669 13.0775 12.5389 13.7828 12.1306C14.5304 11.6906 14.9174 11.1445 14.9174 10.3438C14.9174 9.10843 13.9047 8.28125 12.3989 8.28125C11.2589 8.28125 10.4105 8.73193 10.0712 9.43183C9.9652 9.63335 9.91217 9.8348 9.91217 10.0628C9.91217 10.4658 10.172 10.7256 10.5908 10.7256C10.9142 10.7256 11.1529 10.5772 11.2854 10.2378C11.4551 9.76588 11.805 9.5114 12.3246 9.5114C12.9079 9.5114 13.3109 9.87193 13.3109 10.3915C13.3109 10.8793 13.1041 11.1445 12.4201 11.5527C11.7944 11.9185 11.471 12.3321 11.471 12.9578V13.0321C11.471 13.4668 11.7361 13.7743 12.1868 13.7743ZM12.1974 16.1337C12.6799 16.1337 13.067 15.7679 13.067 15.3013C13.067 14.8348 12.6799 14.4689 12.1974 14.4689C11.7202 14.4689 11.3331 14.8348 11.3331 15.3013C11.3331 15.7679 11.7202 16.1337 12.1974 16.1337Z" fill="#76739A"/>
<path fill-rule="evenodd" clip-rule="evenodd" d="M14.7228 17.7397C15.4518 17.4265 16.086 16.9954 16.6355 16.4419L16.6427 16.4347C17.1972 15.8837 17.6318 15.247 17.9499 14.5147C18.2569 13.8078 18.4149 13.0439 18.4149 12.2075C18.4149 11.3768 18.2573 10.6152 17.9499 9.90734C17.6313 9.17414 17.1958 8.53372 16.6391 7.97677L16.6354 7.97309C16.0873 7.42094 15.4519 6.98982 14.7183 6.67637L14.7096 6.67265C14.0022 6.36515 13.2413 6.20752 12.4113 6.20752C11.5813 6.20752 10.8169 6.36512 10.1033 6.67376L10.0998 6.67526C9.37061 6.98848 8.73318 7.42017 8.17826 7.97489C7.62668 8.53102 7.19306 9.17099 6.87411 9.90434C6.57062 10.6127 6.41486 11.3755 6.41486 12.2075C6.41486 13.0453 6.57099 13.8103 6.87412 14.5178C7.19207 15.2488 7.62614 15.8845 8.17991 16.4347L8.18351 16.4383C8.73888 16.9939 9.37691 17.4262 10.107 17.7398L10.113 17.7424C10.8203 18.0499 11.5813 18.2075 12.4113 18.2075C13.2471 18.2075 14.0103 18.0496 14.7167 17.7424L14.7228 17.7397ZM5.49697 15.1123C5.88977 16.0167 6.43166 16.8121 7.12262 17.4987C7.81358 18.19 8.61101 18.7297 9.51498 19.118C10.4189 19.511 11.3844 19.7075 12.4113 19.7075C13.443 19.7075 14.4108 19.511 15.3147 19.118C16.2187 18.7297 17.0138 18.19 17.7 17.4987C18.3909 16.8121 18.9328 16.0167 19.3257 15.1123C19.7184 14.208 19.9149 13.2397 19.9149 12.2075C19.9149 11.1801 19.7184 10.2142 19.3257 9.30982C18.9328 8.40547 18.3909 7.60761 17.7 6.91633C17.0138 6.22504 16.2163 5.68526 15.3077 5.297C14.4037 4.90402 13.4383 4.70752 12.4113 4.70752C11.3844 4.70752 10.4165 4.90402 9.50786 5.297C8.60396 5.68526 7.80648 6.22504 7.11552 6.91633C6.42929 7.60761 5.88977 8.40547 5.49697 9.30982C5.1089 10.2142 4.91486 11.1801 4.91486 12.2075C4.91486 13.2397 5.1089 14.208 5.49697 15.1123Z" fill="#76739A"/>
</svg>
