<svg width="33" height="33" viewBox="0 0 33 33" fill="none" xmlns="http://www.w3.org/2000/svg">
<path d="M7.41461 16.245C11.1169 16.2024 13.1891 15.9601 14.5683 14.5809C15.9476 13.2016 16.1899 11.1295 16.2325 7.42725C11.4056 7.52307 7.51043 11.4181 7.41461 16.245Z" fill="#ABB0C3"/>
<path d="M16.77 7.43213C16.8128 11.1312 17.0555 13.2021 18.4341 14.5807C19.7917 15.9383 21.8206 16.1944 25.4147 16.2427C25.3189 11.4746 21.5159 7.61636 16.77 7.43213Z" fill="#ABB0C3"/>
<path d="M25.4095 16.7847C21.8187 16.8331 19.7911 17.0896 18.4341 18.4466C17.0772 19.8035 16.8207 21.8312 16.7722 25.422C21.4594 25.2389 25.2265 21.4719 25.4095 16.7847Z" fill="#ABB0C3"/>
<path d="M16.2302 25.4273C16.1819 21.8333 15.9258 19.8043 14.5682 18.4468C13.1896 17.0681 11.1187 16.8254 7.41968 16.7827C7.60392 21.5285 11.4622 25.3315 16.2302 25.4273Z" fill="#ABB0C3"/>
</svg>
