<svg width="15" height="14" viewBox="0 0 15 14" fill="none" xmlns="http://www.w3.org/2000/svg">
<path fill-rule="evenodd" clip-rule="evenodd" d="M14.3049 7.20752C14.3049 10.9355 11.2828 13.9575 7.55487 13.9575C3.82692 13.9575 0.804871 10.9355 0.804871 7.20752C0.804871 3.47957 3.82692 0.45752 7.55487 0.45752C11.2828 0.45752 14.3049 3.47957 14.3049 7.20752ZM7.79667 5.44067C7.14012 5.71374 5.82792 6.27894 3.86022 7.13627C3.54065 7.26332 3.37325 7.3876 3.35802 7.50917C3.3323 7.71459 3.58955 7.79544 3.9398 7.90562C3.9875 7.92062 4.03685 7.93614 4.08747 7.95257C4.4321 8.06462 4.89575 8.19572 5.13672 8.20089C5.35535 8.20562 5.59932 8.11547 5.86872 7.93052C7.70727 6.68942 8.65632 6.06212 8.71595 6.04862C8.75795 6.03909 8.81622 6.02709 8.85567 6.06219C8.89512 6.09722 8.8913 6.16367 8.8871 6.18152C8.8616 6.29012 7.8518 7.22889 7.32927 7.71474C7.16637 7.86617 7.0508 7.97364 7.02717 7.99817C6.97422 8.05314 6.9203 8.10512 6.86847 8.15507C6.5483 8.46377 6.30822 8.69522 6.88182 9.07322C7.15745 9.25487 7.37802 9.40502 7.59807 9.55487C7.83837 9.71852 8.07807 9.88179 8.3882 10.085C8.46717 10.1369 8.54262 10.1906 8.61612 10.2431C8.8958 10.4424 9.14705 10.6215 9.45747 10.5929C9.63785 10.5764 9.82415 10.4068 9.91879 9.90092C10.1424 8.70549 10.5819 6.11537 10.6835 5.04804C10.6924 4.95452 10.6812 4.83482 10.6722 4.78232C10.6632 4.72982 10.6444 4.65497 10.5762 4.59954C10.4952 4.53392 10.3704 4.52004 10.3146 4.52102C10.0607 4.52552 9.67122 4.66097 7.79667 5.44067Z" fill="#229ED9"/>
</svg>
