<svg width="19" height="19" viewBox="0 0 19 19" fill="none" xmlns="http://www.w3.org/2000/svg">
<path fill-rule="evenodd" clip-rule="evenodd" d="M18.4149 9.42725C18.4149 14.3978 14.3855 18.4272 9.41486 18.4272C4.44426 18.4272 0.414856 14.3978 0.414856 9.42725C0.414856 4.45665 4.44426 0.427246 9.41486 0.427246C14.3855 0.427246 18.4149 4.45665 18.4149 9.42725ZM9.73726 7.07145C8.86186 7.43555 7.11226 8.18915 4.48866 9.33225C4.06256 9.50165 3.83936 9.66735 3.81906 9.82945C3.78476 10.1033 4.12776 10.2111 4.59476 10.358C4.65836 10.378 4.72416 10.3987 4.79166 10.4206C5.25116 10.57 5.86936 10.7448 6.19066 10.7517C6.48216 10.758 6.80746 10.6378 7.16666 10.3912C9.61806 8.73645 10.8835 7.90005 10.963 7.88205C11.019 7.86935 11.0967 7.85335 11.1493 7.90015C11.2019 7.94685 11.1968 8.03545 11.1912 8.05925C11.1572 8.20405 9.81076 9.45575 9.11406 10.1035C8.89686 10.3054 8.74276 10.4487 8.71126 10.4814C8.64066 10.5547 8.56876 10.624 8.49966 10.6906C8.07276 11.1022 7.75266 11.4108 8.51746 11.9148C8.88496 12.157 9.17906 12.3572 9.47246 12.557C9.79286 12.7752 10.1125 12.9929 10.526 13.2639C10.6313 13.333 10.7319 13.4047 10.8299 13.4746C11.2028 13.7404 11.5378 13.9792 11.9517 13.9411C12.1922 13.919 12.4406 13.6929 12.5668 13.0184C12.8649 11.4245 13.451 7.97105 13.5864 6.54795C13.5983 6.42325 13.5833 6.26365 13.5714 6.19365C13.5594 6.12365 13.5343 6.02385 13.4433 5.94995C13.3354 5.86245 13.169 5.84395 13.0945 5.84525C12.756 5.85125 12.2367 6.03185 9.73726 7.07145Z" fill="#ABB0C3"/>
</svg>
