<svg width="16" height="15" viewBox="0 0 16 15" fill="none" xmlns="http://www.w3.org/2000/svg">
<path d="M7.4294 0.784705C7.60903 0.231925 8.39105 0.231917 8.57068 0.784705L9.88595 4.83273C9.96628 5.07993 10.1967 5.24732 10.4566 5.24732H14.7129C15.2942 5.24732 15.5358 5.9911 15.0656 6.33273L11.6221 8.83458C11.4118 8.98735 11.3239 9.25817 11.4042 9.50537L12.7194 13.5534C12.8991 14.1062 12.2664 14.5658 11.7962 14.2242L8.35273 11.7224C8.14243 11.5696 7.85765 11.5696 7.64735 11.7224L4.20388 14.2242C3.7337 14.5658 3.10099 14.1062 3.2806 13.5534L4.5959 9.50537C4.67623 9.25817 4.58825 8.98735 4.37795 8.83458L0.934468 6.33273C0.46424 5.9911 0.705905 5.24732 1.28714 5.24732H5.54345C5.8034 5.24732 6.0338 5.07993 6.11413 4.83273L7.4294 0.784705Z" fill="#E4BF38"/>
</svg>
