<svg width="37" height="33" viewBox="0 0 37 33" fill="none" xmlns="http://www.w3.org/2000/svg">
<path fill-rule="evenodd" clip-rule="evenodd" d="M3.74391 12.6285C4.06553 12.6268 5.02137 12.5503 5.42625 13.7649C5.69898 14.5831 6.13342 15.9233 6.72957 17.7856H6.97236C7.61168 15.8222 8.05086 14.482 8.2899 13.7649C8.699 12.5376 9.72172 12.6285 10.1308 12.6285H13.2871V21.3558H10.0701V16.2127H9.85442L8.06113 21.3558H5.6408L3.84751 16.2089H3.63179V21.3558H0.414856V12.6285H3.74391ZM17.9066 12.6285V17.7755H18.1632L20.3446 13.5432C20.768 12.7009 21.6705 12.6285 21.6705 12.6285H24.7835V21.3558H21.4994V16.2089H21.2428L19.1041 20.4412C18.6807 21.2796 17.7355 21.3558 17.7355 21.3558H14.6224V12.6285H17.9066ZM36.1348 16.7758C35.6767 17.9297 34.2382 18.7561 32.6454 18.7561H29.2014V21.3558H26.0784V16.7758H36.1348Z" fill="#0F754E"/>
<path fill-rule="evenodd" clip-rule="evenodd" d="M32.7956 12.6284H25.9141C26.0779 14.5714 27.9604 16.2347 29.909 16.2347H36.3514C36.7232 14.6198 35.4433 12.6284 32.7956 12.6284Z" fill="url(#paint0_linear_4_853)"/>
<defs>
<linearGradient id="paint0_linear_4_853" x1="36.4146" y1="14.8969" x2="25.9141" y2="14.8969" gradientUnits="userSpaceOnUse">
<stop stop-color="#1F5CD7"/>
<stop offset="1" stop-color="#02AEFF"/>
</linearGradient>
</defs>
</svg>
