<svg width="32" height="33" viewBox="0 0 32 33" fill="none" xmlns="http://www.w3.org/2000/svg">
<path fill-rule="evenodd" clip-rule="evenodd" d="M11.0672 21.7834C9.86367 22.6008 9.4375 23.4769 9.4375 23.9755C9.4375 24.4352 9.55537 24.5136 9.57822 24.5288L9.58069 24.5305C9.68176 24.6044 9.95156 24.7096 10.5959 24.7278C11.2067 24.745 11.951 24.6842 12.8756 24.6086L12.916 24.6053C13.8335 24.5303 14.887 24.4463 16 24.4463C17.113 24.4463 18.1665 24.5303 19.084 24.6053L19.1244 24.6086C20.049 24.6842 20.7933 24.745 21.4041 24.7278C22.0484 24.7096 22.3182 24.6044 22.4193 24.5305L22.4218 24.5288C22.4446 24.5136 22.5625 24.4352 22.5625 23.9755C22.5625 23.4769 22.1363 22.6008 20.9328 21.7834C19.7823 21.002 18.0833 20.4048 16 20.4048C13.9167 20.4048 12.2177 21.002 11.0672 21.7834ZM9.8031 19.9221C11.349 18.8722 13.4938 18.1548 16 18.1548C18.5062 18.1548 20.651 18.8722 22.1969 19.9221C23.6897 20.936 24.8125 22.4078 24.8125 23.9755C24.8125 24.9338 24.5109 25.7884 23.7475 26.3467C23.0705 26.8417 22.2145 26.9558 21.4677 26.9769C20.7302 26.9977 19.876 26.9277 19.0195 26.8576C18.9799 26.8543 18.9403 26.8511 18.9007 26.8478C17.9787 26.7725 17.0098 26.6963 16 26.6963C14.9902 26.6963 14.0213 26.7725 13.0993 26.8478C13.0597 26.8511 13.0201 26.8543 12.9805 26.8576C12.124 26.9277 11.2698 26.9977 10.5323 26.9769C9.78551 26.9558 8.9295 26.8417 8.25255 26.3467C7.4891 25.7884 7.1875 24.9338 7.1875 23.9755C7.1875 22.4078 8.3103 20.936 9.8031 19.9221Z" fill="#BB5C7C"/>
<path fill-rule="evenodd" clip-rule="evenodd" d="M16.0002 9.00977C14.3403 9.00977 12.9946 10.3554 12.9946 12.0153C12.9946 13.6753 14.3403 15.0209 16.0002 15.0209C17.6602 15.0209 19.0058 13.6753 19.0058 12.0153C19.0058 10.3554 17.6602 9.00977 16.0002 9.00977ZM10.7446 12.0153C10.7446 9.11278 13.0976 6.75977 16.0002 6.75977C18.9028 6.75977 21.2558 9.11278 21.2558 12.0153C21.2558 14.9179 18.9028 17.2709 16.0002 17.2709C13.0976 17.2709 10.7446 14.9179 10.7446 12.0153Z" fill="#BB5C7C"/>
</svg>
