<svg width="16" height="12" viewBox="0 0 16 12" fill="none" xmlns="http://www.w3.org/2000/svg">
<path d="M3.15494 11.7877H13.8201C14.4809 11.7877 14.9942 11.5983 15.3598 11.2194C15.7298 10.845 15.9149 10.2943 15.9149 9.56742V2.25904C15.9149 1.5366 15.7254 0.988145 15.3466 0.613693C14.9678 0.234838 14.4104 0.0454102 13.6748 0.0454102H3.00957C2.34877 0.0454102 1.83336 0.234838 1.46332 0.613693C1.09768 0.988145 0.914856 1.5366 0.914856 2.25904V9.56742C0.914856 10.2943 1.10428 10.845 1.48314 11.2194C1.8664 11.5983 2.42367 11.7877 3.15494 11.7877ZM3.18138 10.4001C2.89063 10.4001 2.66816 10.3273 2.51398 10.182C2.35979 10.0322 2.2827 9.80314 2.2827 9.49474V2.33172C2.2827 2.02782 2.35979 1.80312 2.51398 1.65775C2.66816 1.50796 2.89063 1.43308 3.18138 1.43308H13.655C13.9413 1.43308 14.1616 1.50796 14.3157 1.65775C14.4699 1.80312 14.547 2.02999 14.547 2.33839V9.50134C14.547 9.80532 14.4699 10.0322 14.3157 10.182C14.1616 10.3273 13.9413 10.4001 13.655 10.4001H3.18138ZM8.42146 7.73704C8.67698 7.73704 8.92591 7.68417 9.16816 7.57842C9.41048 7.46832 9.65273 7.29214 9.89506 7.04982L15.1748 1.85599L14.3091 0.977128L9.14836 6.07842C9.01178 6.21064 8.88623 6.30754 8.77171 6.36919C8.65718 6.43084 8.54041 6.46174 8.42146 6.46174C8.30693 6.46174 8.19241 6.43084 8.07788 6.36919C7.96328 6.30312 7.83773 6.20622 7.70123 6.07842L2.52058 0.963913L1.64833 1.83619L6.94793 7.04982C7.19018 7.29214 7.43251 7.46832 7.67476 7.57842C7.91708 7.68417 8.16593 7.73704 8.42146 7.73704ZM14.21 10.704L15.0823 9.82512L10.8995 5.68197L10.0272 6.54762L14.21 10.704ZM1.76067 9.82512L2.63292 10.704L6.82238 6.54762L5.94346 5.68197L1.76067 9.82512Z" fill="#76739A"/>
</svg>
